<?xml version="1.0" encoding="utf-8"?>
<!-- Generator: Adobe Illustrator 16.0.4, SVG Export Plug-In . SVG Version: 6.00 Build 0)  -->
<!DOCTYPE svg PUBLIC "-//W3C//DTD SVG 1.1//EN" "http://www.w3.org/Graphics/SVG/1.1/DTD/svg11.dtd">
<svg version="1.1" id="Capa_1" xmlns="http://www.w3.org/2000/svg" xmlns:xlink="http://www.w3.org/1999/xlink" x="0px" y="0px"
	 width="67.467px" height="12.669px" viewBox="0 0 67.467 12.669" enable-background="new 0 0 67.467 12.669" xml:space="preserve">
<g>
	<path d="M3.791,0.932h2.042l3.056,8.637H6.932l-0.57-1.775H3.181L2.596,9.569H0.708L3.791,0.932z M3.672,6.305h2.212L4.793,2.907
		L3.672,6.305z"/>
	<path d="M9.665,10.793l0.211,0.012c0.164,0.008,0.32,0.002,0.469-0.018s0.273-0.064,0.375-0.135
		c0.098-0.066,0.188-0.205,0.272-0.416s0.12-0.34,0.108-0.387L8.754,3.182h1.857l1.395,4.711l1.318-4.711H15.1L12.91,9.463
		c-0.423,1.211-0.758,1.962-1.004,2.253s-0.739,0.437-1.478,0.437c-0.149,0-0.268-0.001-0.358-0.003s-0.225-0.009-0.405-0.021
		V10.793z"/>
	<path d="M20.249,3.312c0.446,0.2,0.813,0.515,1.104,0.945c0.261,0.379,0.431,0.819,0.509,1.32c0.045,0.293,0.063,0.716,0.055,1.268
		h-4.651c0.026,0.641,0.249,1.09,0.668,1.348c0.255,0.16,0.562,0.24,0.921,0.24c0.38,0,0.689-0.098,0.927-0.293
		c0.13-0.105,0.245-0.252,0.344-0.439h1.705c-0.045,0.379-0.251,0.764-0.619,1.154c-0.572,0.621-1.373,0.932-2.403,0.932
		c-0.85,0-1.6-0.262-2.25-0.786s-0.975-1.376-0.975-2.557c0-1.106,0.293-1.955,0.88-2.545s1.348-0.886,2.284-0.886
		C19.303,3.012,19.803,3.112,20.249,3.312z M17.75,4.754c-0.236,0.244-0.384,0.573-0.445,0.989h2.877
		c-0.03-0.443-0.179-0.78-0.445-1.009s-0.596-0.344-0.99-0.344C18.319,4.389,17.986,4.511,17.75,4.754z"/>
	<path d="M26.309,3.033c0.021,0.002,0.069,0.005,0.144,0.009v1.711c-0.105-0.012-0.199-0.02-0.281-0.023s-0.148-0.006-0.199-0.006
		c-0.672,0-1.123,0.219-1.354,0.656c-0.129,0.246-0.193,0.625-0.193,1.137v3.053h-1.682V3.182h1.594v1.113
		c0.258-0.426,0.482-0.717,0.674-0.873c0.312-0.262,0.719-0.393,1.219-0.393C26.261,3.03,26.287,3.031,26.309,3.033z"/>
	<path d="M28.248,0.961l2.473,7.33l2.443-7.33h1.307L31.33,9.569h-1.236l-3.135-8.607H28.248z"/>
	<path d="M35.218,0.961h1.072v1.195h-1.072V0.961z M35.218,3.323h1.072v6.246h-1.072V3.323z"/>
	<path d="M41.76,3.466c0.416,0.209,0.732,0.479,0.949,0.812c0.21,0.316,0.35,0.686,0.42,1.107c0.062,0.289,0.093,0.75,0.093,1.383
		h-4.564c0.02,0.639,0.169,1.151,0.447,1.537c0.279,0.386,0.712,0.579,1.297,0.579c0.547,0,0.982-0.183,1.308-0.547
		c0.183-0.212,0.312-0.457,0.388-0.736h1.037c-0.027,0.23-0.118,0.487-0.272,0.771s-0.326,0.515-0.517,0.694
		c-0.317,0.312-0.711,0.523-1.181,0.633c-0.252,0.062-0.536,0.094-0.854,0.094c-0.776,0-1.435-0.284-1.974-0.853
		c-0.54-0.568-0.81-1.364-0.81-2.388c0-1.008,0.271-1.826,0.815-2.455c0.543-0.629,1.254-0.943,2.131-0.943
		C40.916,3.153,41.345,3.257,41.76,3.466z M42.138,5.93c-0.043-0.457-0.142-0.822-0.296-1.096c-0.287-0.508-0.766-0.762-1.436-0.762
		c-0.48,0-0.883,0.175-1.208,0.524c-0.326,0.35-0.498,0.794-0.518,1.333H42.138z"/>
	<path d="M44.587,3.293h1.002v1.084c0.082-0.211,0.283-0.468,0.604-0.771s0.689-0.454,1.107-0.454c0.02,0,0.053,0.002,0.1,0.006
		s0.127,0.012,0.24,0.023v1.113c-0.062-0.012-0.12-0.02-0.173-0.023s-0.11-0.006-0.173-0.006c-0.531,0-0.939,0.171-1.225,0.513
		s-0.428,0.735-0.428,1.181v3.609h-1.055V3.293z"/>
	<path d="M48.554,3.293h1.002v0.891c0.297-0.367,0.611-0.631,0.943-0.791c0.332-0.16,0.701-0.24,1.107-0.24
		c0.891,0,1.492,0.311,1.805,0.932c0.172,0.34,0.258,0.826,0.258,1.459v4.025h-1.072V5.614c0-0.383-0.057-0.691-0.17-0.926
		c-0.188-0.391-0.527-0.586-1.02-0.586c-0.25,0-0.455,0.025-0.615,0.076c-0.289,0.086-0.542,0.258-0.761,0.516
		c-0.176,0.207-0.29,0.421-0.343,0.642s-0.079,0.536-0.079,0.946v3.287h-1.055V3.293z"/>
	<path d="M59.104,3.466c0.416,0.209,0.732,0.479,0.949,0.812c0.21,0.316,0.35,0.686,0.42,1.107c0.062,0.289,0.093,0.75,0.093,1.383
		h-4.564c0.02,0.639,0.169,1.151,0.447,1.537c0.279,0.386,0.712,0.579,1.297,0.579c0.547,0,0.982-0.183,1.308-0.547
		c0.183-0.212,0.312-0.457,0.388-0.736h1.037c-0.027,0.23-0.118,0.487-0.272,0.771s-0.326,0.515-0.517,0.694
		c-0.317,0.312-0.711,0.523-1.181,0.633c-0.252,0.062-0.536,0.094-0.854,0.094c-0.776,0-1.435-0.284-1.974-0.853
		c-0.54-0.568-0.81-1.364-0.81-2.388c0-1.008,0.271-1.826,0.815-2.455c0.543-0.629,1.254-0.943,2.131-0.943
		C58.26,3.153,58.688,3.257,59.104,3.466z M59.481,5.93c-0.043-0.457-0.142-0.822-0.296-1.096c-0.287-0.508-0.766-0.762-1.436-0.762
		c-0.48,0-0.883,0.175-1.208,0.524c-0.326,0.35-0.498,0.794-0.518,1.333H59.481z"/>
	<path d="M62.528,7.6c0.032,0.352,0.121,0.621,0.27,0.809c0.271,0.34,0.741,0.51,1.411,0.51c0.398,0,0.749-0.085,1.053-0.255
		c0.303-0.17,0.454-0.433,0.454-0.788c0-0.27-0.121-0.475-0.363-0.615c-0.155-0.086-0.461-0.186-0.917-0.299L63.584,6.75
		c-0.544-0.133-0.944-0.281-1.203-0.445c-0.46-0.285-0.69-0.68-0.69-1.184c0-0.594,0.217-1.074,0.65-1.441s1.017-0.551,1.749-0.551
		c0.958,0,1.648,0.277,2.072,0.832c0.265,0.352,0.394,0.73,0.386,1.137h-0.996c-0.021-0.237-0.106-0.453-0.258-0.647
		c-0.248-0.275-0.678-0.414-1.29-0.414c-0.407,0-0.717,0.076-0.927,0.228s-0.314,0.353-0.314,0.602c0,0.272,0.138,0.49,0.414,0.654
		c0.159,0.097,0.394,0.183,0.704,0.257l0.711,0.17c0.771,0.184,1.289,0.361,1.552,0.533c0.41,0.27,0.615,0.693,0.615,1.271
		c0,0.559-0.215,1.041-0.644,1.447c-0.43,0.406-1.083,0.609-1.961,0.609c-0.945,0-1.614-0.212-2.008-0.636S61.542,8.225,61.515,7.6
		H62.528z"/>
</g>
</svg>
