<?xml version="1.0" encoding="utf-8"?>
<!-- Generator: Adobe Illustrator 16.0.4, SVG Export Plug-In . SVG Version: 6.00 Build 0)  -->
<!DOCTYPE svg PUBLIC "-//W3C//DTD SVG 1.1//EN" "http://www.w3.org/Graphics/SVG/1.1/DTD/svg11.dtd">
<svg version="1.1" id="Layer_1" xmlns="http://www.w3.org/2000/svg" xmlns:xlink="http://www.w3.org/1999/xlink" x="0px" y="0px"
	 width="84.139px" height="27.363px" viewBox="0 0 84.139 27.363" enable-background="new 0 0 84.139 27.363" xml:space="preserve">
<g>
	<path fill="#F4E359" d="M33.617,13.762c0-1.231-0.353-2.381-0.961-3.354c0.169,0.571,0.261,1.174,0.261,1.8
		c0,0.935-0.203,1.822-0.567,2.621c-0.422,2.565-2.336,4.633-4.83,5.294C30.915,19.958,33.617,17.173,33.617,13.762"/>
	<path fill="#EC7233" d="M21.054,15.562c-0.608-0.975-0.96-2.124-0.96-3.354c0-0.915,0.195-1.785,0.543-2.571
		c-0.914,1.131-1.461,2.567-1.459,4.13c0.004,3.637,2.976,6.582,6.637,6.578c0.59,0,1.162-0.078,1.705-0.222
		c-0.103,0.005-0.208,0.008-0.314,0.008C24.293,20.13,21.835,18.202,21.054,15.562"/>
	<path fill="#FFFFB4" d="M32.349,14.828c-1.006,2.209-3.244,3.747-5.844,3.747c-2.302,0-4.32-1.205-5.451-3.014
		c0.782,2.641,3.24,4.568,6.151,4.568c0.106,0,0.211-0.003,0.315-0.008C30.013,19.461,31.928,17.393,32.349,14.828"/>
	<path fill="#0C9AC2" d="M25.8,7.173c0.603,0,1.187,0.08,1.741,0.229c2.161,0.111,4.039,1.285,5.116,3.005
		c-0.782-2.641-3.24-4.568-6.152-4.568c-2.62,0-4.873,1.561-5.867,3.797C21.851,8.137,23.712,7.176,25.8,7.173"/>
	<path fill="#8AE8FF" d="M27.541,7.402c2.818,0.756,4.893,3.312,4.896,6.35c0,0.367-0.029,0.726-0.088,1.076
		c0.364-0.799,0.567-1.687,0.567-2.621c0-0.625-0.091-1.229-0.259-1.8C31.58,8.687,29.702,7.512,27.541,7.402"/>
	<path fill="#C1C93D" d="M21.054,15.562c-0.168-0.571-0.26-1.175-0.26-1.8c0-3.518,2.871-6.368,6.412-6.368
		c0.113,0,0.225,0.003,0.336,0.009c-0.554-0.149-1.138-0.229-1.741-0.229c-2.088,0.003-3.949,0.963-5.164,2.462
		c-0.349,0.787-0.543,1.656-0.543,2.571C20.093,13.438,20.445,14.587,21.054,15.562"/>
	<path fill="#FFFFFF" d="M27.541,7.402c-0.111-0.006-0.223-0.009-0.336-0.009c-3.541,0-6.412,2.851-6.412,6.369
		c0,0.625,0.092,1.229,0.26,1.799c1.131,1.81,3.149,3.014,5.451,3.014c2.601,0,4.838-1.538,5.844-3.747
		c0.059-0.35,0.088-0.709,0.088-1.076C32.434,10.713,30.359,8.158,27.541,7.402"/>
	<path d="M22.19,13.477c0-0.827,0.244-1.483,0.731-1.97c0.488-0.486,1.078-0.729,1.77-0.729c0.587,0,1.108,0.227,1.562,0.68
		l-0.743,0.835c-0.261-0.23-0.53-0.345-0.804-0.345c-0.321,0-0.589,0.133-0.806,0.401c-0.217,0.268-0.325,0.626-0.325,1.078
		c0,0.471,0.1,0.838,0.298,1.101c0.199,0.263,0.466,0.394,0.802,0.394c0.341,0,0.642-0.136,0.901-0.407l0.739,0.818
		c-0.437,0.506-0.988,0.759-1.655,0.759c-0.708,0-1.296-0.227-1.767-0.681C22.424,14.958,22.19,14.313,22.19,13.477"/>
	<path d="M26.7,15.357l0.77-0.931c0.405,0.331,0.804,0.496,1.192,0.496s0.583-0.121,0.583-0.361c0-0.146-0.193-0.296-0.583-0.45
		c-0.049-0.018-0.086-0.033-0.111-0.046L27.918,13.8c-0.303-0.12-0.549-0.302-0.738-0.544c-0.19-0.242-0.285-0.536-0.285-0.882
		c0-0.447,0.179-0.825,0.535-1.133s0.809-0.463,1.356-0.463c0.305,0,0.608,0.058,0.91,0.174c0.303,0.116,0.566,0.287,0.793,0.514
		l-0.676,0.855c-0.352-0.246-0.695-0.37-1.029-0.373c-0.357,0-0.535,0.115-0.535,0.346c0,0.1,0.047,0.18,0.143,0.24
		s0.259,0.135,0.49,0.225c0.054,0.023,0.097,0.04,0.128,0.05l0.619,0.242c0.665,0.261,0.999,0.729,1.001,1.403
		c0,0.457-0.181,0.843-0.54,1.161c-0.361,0.318-0.848,0.477-1.463,0.477c-0.333,0-0.672-0.062-1.015-0.186
		C27.272,15.781,26.967,15.598,26.7,15.357"/>
	<path d="M36.114,13.48c0-0.827,0.244-1.483,0.731-1.97c0.487-0.486,1.077-0.729,1.77-0.729c0.587,0,1.108,0.227,1.562,0.679
		l-0.742,0.836c-0.262-0.23-0.53-0.346-0.804-0.346c-0.321,0-0.59,0.134-0.806,0.402c-0.217,0.267-0.326,0.627-0.326,1.077
		c0,0.471,0.1,0.839,0.299,1.101c0.198,0.263,0.466,0.394,0.802,0.394c0.34,0,0.641-0.135,0.9-0.407l0.738,0.819
		c-0.436,0.505-0.987,0.758-1.654,0.758c-0.708,0-1.296-0.227-1.766-0.681C36.349,14.96,36.114,14.315,36.114,13.48"/>
	<path d="M40.72,12.058h1.355v3.94H40.72V12.058z M40.915,11.381c-0.102-0.126-0.152-0.289-0.152-0.489
		c0-0.2,0.05-0.362,0.152-0.488c0.101-0.125,0.262-0.188,0.482-0.188c0.221,0,0.401,0.063,0.541,0.188
		c0.14,0.126,0.209,0.288,0.209,0.488c0,0.201-0.069,0.363-0.209,0.489c-0.14,0.125-0.32,0.188-0.541,0.188
		C41.177,11.569,41.016,11.506,40.915,11.381"/>
	<path d="M42.763,13.112v-1.008l0.597-0.046l0.158-1.023h1.118v1.023h0.901v1.054h-0.901v1.354c0,0.383,0.156,0.574,0.467,0.574
		h0.007c0.105,0,0.221-0.021,0.346-0.062l0.204,0.975c-0.304,0.094-0.613,0.142-0.927,0.142c-0.495,0-0.86-0.142-1.096-0.425
		c-0.236-0.284-0.355-0.678-0.355-1.183v-1.374H42.763z"/>
	<path d="M46.138,12.058h1.354v3.94h-1.354V12.058z M46.332,11.381c-0.101-0.126-0.152-0.289-0.152-0.489
		c0-0.2,0.052-0.362,0.152-0.488c0.102-0.125,0.263-0.188,0.483-0.188c0.22,0,0.4,0.063,0.54,0.188
		c0.14,0.126,0.21,0.288,0.21,0.488c0,0.201-0.07,0.363-0.21,0.489c-0.14,0.125-0.32,0.188-0.54,0.188
		C46.594,11.569,46.433,11.506,46.332,11.381"/>
	<path d="M48.316,15.359l0.77-0.93c0.406,0.331,0.804,0.495,1.193,0.495c0.389,0,0.584-0.12,0.584-0.361
		c0-0.146-0.195-0.296-0.584-0.449c-0.048-0.019-0.085-0.034-0.111-0.046l-0.633-0.266c-0.304-0.12-0.549-0.301-0.738-0.543
		c-0.19-0.242-0.284-0.536-0.284-0.882c0-0.447,0.177-0.825,0.535-1.133c0.355-0.309,0.809-0.463,1.356-0.463
		c0.303,0,0.607,0.058,0.91,0.173c0.302,0.116,0.566,0.287,0.792,0.514l-0.675,0.855c-0.353-0.246-0.695-0.371-1.029-0.373
		c-0.356,0-0.536,0.115-0.536,0.346c0,0.099,0.048,0.18,0.144,0.24c0.095,0.061,0.259,0.135,0.491,0.225
		c0.054,0.023,0.095,0.04,0.126,0.05l0.62,0.242c0.664,0.261,0.998,0.729,1.001,1.404c0,0.456-0.179,0.842-0.54,1.16
		c-0.36,0.318-0.848,0.477-1.463,0.477c-0.334,0-0.672-0.062-1.015-0.186C48.888,15.783,48.583,15.601,48.316,15.359"/>
	<path d="M52.767,14.028c0-0.615,0.188-1.114,0.566-1.495c0.377-0.381,0.817-0.571,1.323-0.571c0.557,0,0.981,0.179,1.276,0.537
		s0.444,0.814,0.444,1.372c0,0.211-0.021,0.389-0.06,0.535h-2.242c0.11,0.444,0.414,0.666,0.912,0.666
		c0.25,0,0.52-0.079,0.804-0.236l0.442,0.803c-0.431,0.304-0.909,0.456-1.436,0.456c-0.592,0-1.078-0.185-1.459-0.556
		C52.958,15.168,52.767,14.665,52.767,14.028 M54.056,13.585h1.169c0-0.4-0.175-0.6-0.53-0.6h-0.007H54.68
		C54.337,12.985,54.131,13.186,54.056,13.585"/>
	<path d="M56.769,15.998v-3.94h1.104l0.092,0.474h0.032c0.4-0.378,0.815-0.567,1.246-0.57c0.817,0,1.229,0.536,1.229,1.608v2.428
		h-1.356v-2.255c0-0.241-0.028-0.406-0.089-0.496c-0.062-0.09-0.162-0.135-0.304-0.135c-0.184,0-0.385,0.1-0.599,0.3v2.585H56.769z"
		/>
	<path d="M61.005,13.112v-1.008l0.597-0.046l0.157-1.023h1.119v1.023h0.902v1.054h-0.902v1.354c0,0.383,0.156,0.574,0.467,0.574
		h0.007c0.106,0,0.222-0.021,0.348-0.062l0.203,0.975c-0.305,0.094-0.614,0.142-0.928,0.142c-0.494,0-0.859-0.142-1.096-0.425
		s-0.354-0.678-0.354-1.183v-1.374H61.005z"/>
</g>
</svg>
